<svg xmlns="http://www.w3.org/2000/svg" viewBox="0 0 579.31 622.1">
  <defs>
    <style>
      .cls-1, .cls-2, .cls-7 {
        fill: #fff;
      }

      .cls-2 {
        font-size: 42px;
        letter-spacing: 0.15em;
      }

      .cls-2, .cls-7 {
        font-family: QuattrocentoSans-Bold, Quattrocento Sans;
        font-weight: 700;
      }

      .cls-3 {
        letter-spacing: 0.1em;
      }

      .cls-4 {
        letter-spacing: 0.12em;
      }

      .cls-5 {
        letter-spacing: 0.15em;
      }

      .cls-6 {
        letter-spacing: 0.13em;
      }

      .cls-7 {
        font-size: 20.17px;
        letter-spacing: 0.05em;
      }

      .cls-8 {
        letter-spacing: 0.03em;
      }

      .cls-9 {
        letter-spacing: 0.05em;
      }

      .cls-10 {
        letter-spacing: 0.03em;
      }

      .cls-11 {
        letter-spacing: 0.04em;
      }

      .cls-12 {
        letter-spacing: 0.04em;
      }

      .cls-13 {
        letter-spacing: 0.05em;
      }

      .cls-14 {
        letter-spacing: 0.02em;
      }
    </style>
  </defs>
  <g id="Layer_1" data-name="Layer 1">
    <path class="cls-1" d="M774.85,204a3,3,0,0,0-.11.32,61,61,0,0,1-3.54,9.57C756,245.34,730.27,261.31,696,263.31c-18.61,1.09-37.34.19-56,.18-24.51,0-49-.1-73.52,0q-74.13.17-148.26.54a87.26,87.26,0,0,0-18.47,2.24c-41.19,9.27-66,44.92-67.08,82.6-.59,20.07,3.94,38.82,15.65,55.49,9.15,13,21.44,22.08,35.8,28.56,1.21.55,2.34,1.25,3.51,1.87l-.18.8c-1,.07-2.07.18-3.1.19-5.83.05-11.65.1-17.48.1A114.13,114.13,0,0,0,255,573.57c11,51.18,53.53,87.48,105.77,90,12.23.59,24.49.44,36.75.45q102.3.09,204.61.09c14.76,0,29.52-.15,44.29-.3,1.52,0,4,.79,4-1.79s-2.61-1.56-4-1.59c-15.16-.25-30.33-.36-45.49-.56a16.37,16.37,0,0,1-11.56-5c-4.92-4.85-5.8-11-5.79-17.46q0-76.83,0-153.67c0-3-.07-6,.06-9,.67-15.65,10.56-28.58,25.59-32.78a75.16,75.16,0,0,1,16-2.46c9.82-.52,19.68-.47,29.52-.7a16.54,16.54,0,0,0,2.83-.58c0-.39-.06-.77-.1-1.16a30.13,30.13,0,0,0-3.14-.34c-9.44-.13-18.88-.12-28.32-.34-20.45-.49-35.4-16-35.38-36.43q0-55.14,0-110.28c0-1.61,0-3.23.1-4.82.92-10.94,8.23-18.27,19.16-19.15,2.7-.22,5.42-.27,8.13-.25,40.88.22,81.76.79,122.63.58,24-.13,45-9,62.47-25.69,11-10.57,18.95-23.61,28.16-35.63a4.09,4.09,0,0,0,.38-.62Zm-339.79,71.6a74.48,74.48,0,0,1,34.58-9.21c15.86-.22,31.74-.18,47.6-.09,13.11.08,21,8,21,21.11,0,18.88,0,37.76,0,56.64h0c0,19.08.12,38.16,0,57.24a34.86,34.86,0,0,1-23,32.29,36,36,0,0,1-9.4,1.79c-16,1.18-32.11,2.11-48-1.06-25.57-5.1-44.24-19.78-56.76-42.24C382.33,358.55,386.21,301.88,435.06,275.63Zm98.38,377.09a15.84,15.84,0,0,1-12.08,5.88c-29.82.35-59.65,1.25-89.46.76-44.95-.74-84.74-29.81-99.68-72.2-13.7-38.88-7.41-75,18-107.07,17.66-22.27,41.46-35.4,69.83-39.5a118.56,118.56,0,0,1,16.19-1.17c22-.13,44,.13,66-.11a35.19,35.19,0,0,1,35,27,47.92,47.92,0,0,1,1,10.15c.08,26.71,0,53.42,0,80.12q0,40.51,0,81C538.3,643.23,537.22,648.37,533.44,652.72Z" transform="translate(-252.42 -204.03)"/>
  </g>
  <g id="Ebene_2" data-name="Ebene 2">
    <text class="cls-2" transform="translate(76.89 571.8)">BÜHNE &amp; <tspan class="cls-3" x="237" y="0">F</tspan><tspan class="cls-4" x="261.78" y="0">A</tspan><tspan class="cls-5" x="293.24" y="0">WIE</tspan><tspan class="cls-6" x="390.34" y="0">R</tspan></text>
    <text class="cls-7" transform="translate(12.55 616.85)">VERMÖGENSVE<tspan class="cls-8" x="152.39" y="0">R</tspan><tspan class="cls-9" x="165.26" y="0">WE</tspan><tspan class="cls-10" x="198.96" y="0">R</tspan><tspan x="211.78" y="0">TUNG &amp; N</tspan><tspan class="cls-11" x="311.41" y="0">A</tspan><tspan x="324.95" y="0">CHLASSMAN</tspan><tspan class="cls-12" x="450.81" y="0">A</tspan><tspan class="cls-13" x="464.35" y="0">GEMEN</tspan><tspan class="cls-14" x="536.33" y="0">T</tspan></text>
  </g>
</svg>
