<svg xmlns="http://www.w3.org/2000/svg" xmlns:xlink="http://www.w3.org/1999/xlink" width="1080" zoomAndPan="magnify" viewBox="0 0 810 809.999993" height="1080" preserveAspectRatio="xMidYMid meet" version="1.0"><path fill="#f6f5f6" d="M 329.566406 255.863281 C 328.355469 256.039062 327.835938 256.617188 327.316406 258.230469 C 324.253906 267.816406 315.539062 278.035156 306.589844 282.480469 C 303.875 283.808594 299.601562 285.484375 297.0625 286.175781 C 292.5 287.390625 291.808594 287.445312 218.25 287.851562 C 166.230469 288.140625 142.84375 288.429688 140.015625 288.890625 C 134.703125 289.8125 129.21875 291.777344 124.3125 294.433594 C 119.289062 297.261719 111.78125 304.710938 108.664062 310.023438 C 98.734375 326.9375 100.8125 350.265625 113.515625 364.007812 C 117.324219 368.105469 120.617188 370.589844 126.449219 373.765625 L 130.777344 376.132812 L 125.292969 376.132812 C 112.246094 376.1875 103.585938 377.980469 94.402344 382.484375 C 78.929688 390.105469 68.191406 403.5 63.398438 420.933594 C 62.417969 424.6875 62.1875 427.113281 62.1875 434.445312 C 62.1875 442.355469 62.359375 444.03125 63.746094 449.167969 C 67.382812 462.621094 74.3125 473.070312 84.644531 480.808594 C 92.324219 486.582031 99.773438 489.988281 109.011719 491.953125 C 112.9375 492.761719 120.441406 492.875 176.101562 492.816406 C 246.136719 492.761719 265.015625 492.472656 265.015625 491.257812 C 265.015625 490.683594 262.074219 490.449219 250.929688 490.335938 C 234.878906 490.164062 234.707031 490.105469 232.28125 485.195312 C 231.011719 482.65625 231.011719 482.597656 230.894531 437.910156 C 230.722656 389.988281 230.664062 391.144531 233.609375 386.464844 C 235.511719 383.464844 239.382812 380.347656 242.558594 379.308594 C 245.503906 378.324219 255.953125 377.34375 263.746094 377.285156 C 266.34375 377.285156 268.480469 377.054688 268.480469 376.765625 C 268.480469 376.476562 263.921875 376.132812 258.261719 376.015625 C 248.621094 375.84375 247.8125 375.726562 244.75 374.339844 C 240.824219 372.492188 237.765625 369.433594 235.6875 365.21875 L 234.128906 361.984375 L 234.128906 295.414062 L 235.917969 293.164062 C 239.726562 288.429688 236.785156 288.773438 279.394531 288.71875 C 317.097656 288.601562 317.269531 288.601562 321.601562 287.332031 C 331.125 284.386719 339.09375 279.363281 344.808594 272.609375 C 348.96875 267.699219 356.820312 256.902344 356.820312 256.09375 C 356.820312 255.632812 353.125 255.460938 344 255.519531 C 336.898438 255.574219 330.433594 255.75 329.566406 255.863281 Z M 201.101562 290.332031 C 203.527344 291.316406 205.894531 294.144531 206.703125 296.914062 C 207.050781 298.242188 207.28125 310.484375 207.28125 330 C 207.28125 365.277344 207.335938 364.757812 202.835938 369.78125 C 198.621094 374.457031 195.847656 375.554688 186.550781 376.246094 C 165.074219 377.746094 151.101562 372.726562 141.285156 359.792969 C 134.414062 350.84375 131.933594 342.644531 132.335938 330.578125 C 132.800781 318.335938 136.261719 310.3125 144.636719 301.9375 C 149.714844 296.914062 153.875 294.144531 159.703125 292.007812 C 165.476562 289.929688 168.191406 289.640625 184.359375 289.582031 C 195.734375 289.527344 199.660156 289.699219 201.101562 290.332031 Z M 196.945312 379.480469 C 200.292969 381.097656 203.296875 383.984375 205.316406 387.449219 C 207.511719 391.199219 207.800781 396.511719 207.800781 442.992188 C 207.855469 486.0625 207.972656 484.503906 204.449219 487.851562 L 202.601562 489.527344 L 191.519531 490.046875 C 185.398438 490.277344 172.523438 490.394531 162.824219 490.277344 C 143.941406 490.046875 142.84375 489.929688 134.53125 486.640625 C 124.773438 482.773438 114.613281 474.574219 108.894531 466.027344 C 97.695312 449.167969 96.136719 428.902344 104.507812 410.425781 C 111.667969 394.550781 127.832031 382.078125 145.210938 379.074219 C 150.929688 378.035156 151.910156 378.035156 173.503906 378.09375 C 193.886719 378.152344 194.347656 378.152344 196.945312 379.480469 Z M 196.945312 379.480469 " fill-opacity="1" fill-rule="nonzero"/><path fill="#f6f5f6" d="M 355.433594 362.042969 C 354.914062 362.503906 354.511719 363.3125 354.511719 363.71875 C 354.511719 365.796875 358.089844 367.125 359.589844 365.625 C 360.109375 365.105469 360.457031 365.105469 360.976562 365.625 C 361.957031 366.605469 364.613281 366.488281 365.480469 365.507812 C 366.347656 364.351562 366 362.273438 364.789062 361.464844 C 364.035156 361.003906 363.285156 361.0625 361.898438 361.582031 C 360.6875 362.042969 359.820312 362.042969 359.476562 361.695312 C 358.609375 360.832031 356.414062 361.003906 355.433594 362.042969 Z M 355.433594 362.042969 " fill-opacity="1" fill-rule="nonzero"/><path fill="#f6f5f6" d="M 319.40625 382.828125 L 319.578125 397.207031 L 325.640625 397.207031 C 330.605469 397.207031 332.109375 396.972656 333.957031 395.992188 C 337.015625 394.375 338.457031 391.664062 338.171875 388.023438 C 337.9375 385.601562 337.59375 384.851562 335.804688 383.175781 C 333.722656 381.269531 333.667969 381.210938 334.648438 380.113281 C 335.339844 379.308594 335.6875 378.09375 335.628906 376.1875 C 335.570312 370.644531 333.320312 369.085938 324.890625 368.742188 L 319.289062 368.511719 Z M 328.757812 374.167969 C 330.835938 376.1875 328.933594 380.171875 325.929688 380.171875 C 324.542969 380.171875 324.488281 380 324.488281 377.113281 C 324.488281 375.378906 324.660156 373.820312 324.890625 373.648438 C 325.582031 372.898438 327.835938 373.246094 328.757812 374.167969 Z M 330.835938 385.371094 C 333.78125 388.3125 331.355469 392.875 326.738281 392.875 L 324.488281 392.875 L 324.488281 384.214844 L 327.085938 384.214844 C 328.933594 384.214844 330.03125 384.5625 330.835938 385.371094 Z M 330.835938 385.371094 " fill-opacity="1" fill-rule="nonzero"/><path fill="#f6f5f6" d="M 348.160156 378.902344 C 348.160156 388.429688 348.273438 389.351562 349.488281 391.71875 C 351.390625 395.53125 353.703125 396.628906 359.707031 396.628906 C 364.960938 396.570312 366.980469 395.878906 369.40625 393.335938 C 371.425781 391.144531 371.832031 388.71875 371.832031 378.324219 L 371.832031 368.625 L 366.058594 368.625 L 366.058594 378.09375 C 366.058594 383.347656 365.828125 388.257812 365.480469 389.066406 C 364.5 391.777344 360.285156 393.046875 357.109375 391.605469 C 354.335938 390.335938 353.933594 388.601562 353.933594 378.152344 L 353.933594 368.625 L 348.160156 368.625 Z M 348.160156 378.902344 " fill-opacity="1" fill-rule="nonzero"/><path fill="#f6f5f6" d="M 382.800781 382.484375 L 382.800781 396.339844 L 387.996094 396.339844 L 387.996094 384.214844 L 400.699219 384.214844 L 400.699219 396.339844 L 405.894531 396.339844 L 405.894531 368.625 L 400.699219 368.625 L 400.699219 379.59375 L 387.996094 379.59375 L 387.996094 368.625 L 382.800781 368.625 Z M 382.800781 382.484375 " fill-opacity="1" fill-rule="nonzero"/><path fill="#f6f5f6" d="M 418.597656 382.484375 L 418.597656 396.339844 L 423.792969 396.339844 L 423.792969 387.679688 C 423.792969 382.886719 423.96875 379.019531 424.257812 379.019531 C 424.488281 379.074219 427.027344 382.945312 429.855469 387.679688 L 435.054688 396.339844 L 441.691406 396.339844 L 441.691406 368.625 L 436.496094 368.625 L 436.496094 377.632812 C 436.496094 382.539062 436.265625 386.464844 435.976562 386.292969 C 435.746094 386.121094 433.207031 382.078125 430.375 377.285156 L 425.238281 368.625 L 418.597656 368.625 Z M 418.597656 382.484375 " fill-opacity="1" fill-rule="nonzero"/><path fill="#f6f5f6" d="M 453.816406 382.484375 L 453.816406 396.339844 L 471.140625 396.339844 L 471.140625 391.71875 L 459.015625 391.71875 L 459.015625 384.214844 L 467.675781 384.214844 L 467.675781 379.59375 L 459.015625 379.59375 L 459.015625 373.246094 L 470.5625 373.246094 L 470.5625 368.625 L 453.816406 368.625 Z M 453.816406 382.484375 " fill-opacity="1" fill-rule="nonzero"/><path fill="#f6f5f6" d="M 501.449219 369.144531 C 498.101562 370.53125 496.773438 375.378906 498.738281 379.132812 L 499.835938 381.210938 L 498.160156 382.484375 C 493.425781 386.003906 494.003906 393.742188 499.140625 396.339844 C 501.625 397.609375 507.859375 397.4375 510.863281 396.109375 C 513.113281 395.070312 513.34375 395.070312 514.328125 395.933594 C 515.421875 396.917969 521.371094 397.378906 521.371094 396.511719 C 521.371094 396.28125 520.273438 394.953125 518.945312 393.625 C 516.636719 391.257812 516.519531 390.96875 516.460938 387.503906 C 516.40625 385.542969 516.289062 383.523438 516.175781 383.058594 C 515.941406 382.367188 516.519531 382.136719 518.65625 382.019531 C 521.253906 381.847656 521.371094 381.730469 521.371094 380.113281 C 521.371094 378.152344 521.023438 378.09375 513.171875 379.074219 C 508.265625 379.710938 508.089844 379.769531 508.089844 381.269531 C 508.03125 382.714844 507.976562 382.65625 505.722656 380.171875 C 503.011719 377.054688 502.375 375.265625 503.703125 373.9375 C 504.511719 373.070312 504.742188 373.070312 506.648438 373.996094 C 509.417969 375.324219 509.59375 375.265625 510.34375 373.1875 C 511.207031 370.589844 511.207031 370.589844 508.667969 369.550781 C 506.183594 368.566406 503.296875 368.394531 501.449219 369.144531 Z M 510.976562 383.578125 C 512.015625 385.601562 511.613281 386.175781 510.113281 384.792969 C 509.304688 384.042969 508.667969 383.234375 508.667969 382.945312 C 508.667969 382.019531 510.34375 382.484375 510.976562 383.578125 Z M 506.359375 387.96875 C 509.824219 391.488281 509.765625 392.183594 505.898438 392.703125 C 503.933594 392.992188 503.355469 392.757812 502.085938 391.546875 C 501.277344 390.738281 500.585938 389.410156 500.585938 388.71875 C 500.585938 387.332031 502.027344 384.792969 502.777344 384.792969 C 503.011719 384.792969 504.625 386.234375 506.359375 387.96875 Z M 506.359375 387.96875 " fill-opacity="1" fill-rule="nonzero"/><path fill="#f6f5f6" d="M 546.199219 382.484375 L 546.199219 396.339844 L 551.394531 396.339844 L 551.394531 384.214844 L 559.476562 384.214844 L 559.476562 379.59375 L 551.394531 379.59375 L 551.394531 373.246094 L 562.363281 373.246094 L 562.363281 368.625 L 546.199219 368.625 Z M 546.199219 382.484375 " fill-opacity="1" fill-rule="nonzero"/><path fill="#f6f5f6" d="M 576.566406 369.085938 C 576.394531 369.375 574.027344 375.265625 571.253906 382.25 C 568.542969 389.179688 566.175781 395.242188 566 395.589844 C 565.769531 396.167969 566.578125 396.339844 568.886719 396.339844 L 572.121094 396.339844 L 573.390625 392.296875 L 574.71875 388.257812 L 584.1875 388.257812 L 585.746094 392.296875 L 587.304688 396.339844 L 590.480469 396.339844 C 592.214844 396.339844 593.542969 396.109375 593.425781 395.820312 C 593.367188 395.53125 590.65625 389.296875 587.539062 381.960938 L 581.761719 368.625 L 579.339844 368.625 C 577.953125 368.625 576.742188 368.855469 576.566406 369.085938 Z M 581.011719 380.578125 L 582.515625 384.214844 L 576.222656 384.214844 L 577.316406 381.441406 C 577.894531 379.941406 578.53125 378.210938 578.761719 377.632812 C 579.222656 376.246094 579.28125 376.304688 581.011719 380.578125 Z M 581.011719 380.578125 " fill-opacity="1" fill-rule="nonzero"/><path fill="#f6f5f6" d="M 595.851562 368.742188 C 595.851562 368.855469 598.160156 375.035156 600.988281 382.484375 L 606.070312 396.050781 L 608.609375 396.222656 L 611.152344 396.398438 L 614.210938 387.792969 C 615.886719 383.117188 617.503906 378.902344 617.792969 378.5 C 618.253906 377.691406 618.542969 378.382812 622.757812 390.160156 L 625.007812 396.398438 L 627.550781 396.222656 L 630.089844 396.050781 L 635.171875 382.484375 C 638 375.035156 640.308594 368.855469 640.308594 368.742188 C 640.308594 368.683594 638.921875 368.625 637.191406 368.625 L 634.074219 368.625 L 631.070312 377.691406 C 629.398438 382.714844 627.894531 386.984375 627.664062 387.21875 C 627.433594 387.449219 625.875 383.40625 624.144531 378.152344 L 621.023438 368.625 L 615.136719 368.625 L 612.019531 378.152344 C 610.285156 383.40625 608.726562 387.449219 608.496094 387.21875 C 608.265625 386.984375 606.765625 382.714844 605.089844 377.691406 L 602.085938 368.625 L 598.96875 368.625 C 597.238281 368.625 595.851562 368.683594 595.851562 368.742188 Z M 595.851562 368.742188 " fill-opacity="1" fill-rule="nonzero"/><path fill="#f6f5f6" d="M 648.96875 382.484375 L 648.96875 396.339844 L 654.164062 396.339844 L 654.164062 368.625 L 648.96875 368.625 Z M 648.96875 382.484375 " fill-opacity="1" fill-rule="nonzero"/><path fill="#f6f5f6" d="M 666.289062 382.484375 L 666.289062 396.339844 L 683.613281 396.339844 L 683.613281 391.71875 L 671.488281 391.71875 L 671.488281 384.214844 L 680.148438 384.214844 L 680.148438 379.59375 L 671.488281 379.59375 L 671.488281 373.246094 L 683.035156 373.246094 L 683.035156 368.625 L 666.289062 368.625 Z M 666.289062 382.484375 " fill-opacity="1" fill-rule="nonzero"/><path fill="#f6f5f6" d="M 693.425781 382.484375 L 693.425781 396.339844 L 698.625 396.339844 L 698.625 390.855469 C 698.625 386.8125 698.796875 385.371094 699.375 385.425781 C 699.71875 385.425781 702.085938 387.910156 704.628906 390.910156 L 709.132812 396.339844 L 716.003906 396.339844 L 714.675781 394.664062 C 713.925781 393.742188 711.789062 391.144531 709.941406 388.832031 L 706.476562 384.675781 L 708.324219 383.289062 C 711.5 380.808594 712.078125 375.09375 709.476562 371.800781 C 707.976562 369.894531 703.414062 368.625 697.929688 368.625 L 693.425781 368.625 Z M 703.703125 374.167969 C 706.589844 376.1875 704.511719 380.75 700.644531 380.75 L 698.625 380.75 L 698.625 373.246094 L 700.527344 373.246094 C 701.566406 373.246094 703.011719 373.648438 703.703125 374.167969 Z M 703.703125 374.167969 " fill-opacity="1" fill-rule="nonzero"/></svg>